<svg xmlns="http://www.w3.org/2000/svg" viewBox="0 0 29 45"><defs><style>.cls-1{fill:none;}.cls-2{fill:#ec7d4c;}.cls-3{fill:#f4d387;}</style></defs><g id="Layer_2" data-name="Layer 2"><g id="Layer_1-2" data-name="Layer 1"><rect class="cls-1" width="29" height="45"/><rect class="cls-1" x="5" y="5" width="24" height="40"/><path class="cls-2" d="M7.62,27.72V13.48c-.15-2.27,4.74-1,5.9-1.31a1.2,1.2,0,0,1,0,2.39H10.25v4.65c1,.12,3.6-.53,3.53,1.2.08,1.72-2.53,1.08-3.53,1.19v6.12A1.32,1.32,0,0,1,7.62,27.72Z"/><path class="cls-3" d="M5,20.63V6.39c-.16-2.27,4.74-1,5.9-1.31a1.2,1.2,0,0,1,0,2.39H7.63v4.66c1,.11,3.6-.54,3.53,1.19.08,1.72-2.53,1.08-3.53,1.19v6.12A1.32,1.32,0,0,1,5,20.63Z"/><path class="cls-2" d="M26.37,22.28V36.52c.16,2.27-4.74,1-5.9,1.31a1.2,1.2,0,0,1,0-2.39h3.28V30.79c-1-.12-3.61.53-3.54-1.2s2.53-1.08,3.54-1.19V22.28A1.31,1.31,0,0,1,26.37,22.28Z"/><path class="cls-3" d="M29,29.37V43.61c.15,2.27-4.75,1-5.9,1.31a1.2,1.2,0,0,1,0-2.39h3.27V37.87c-1-.11-3.61.54-3.54-1.19s2.53-1.08,3.54-1.19V29.37A1.32,1.32,0,0,1,29,29.37Z"/></g></g></svg>