<svg xmlns="http://www.w3.org/2000/svg" viewBox="0 0 47.58 47.58"><defs><style>.cls-1{fill:none;}.cls-2{fill:#ec7d4c;}.cls-3{fill:#f4d387;}</style></defs><g id="Layer_2" data-name="Layer 2"><g id="Layer_1-2" data-name="Layer 1"><rect class="cls-1" width="47.58" height="47.58"/><path class="cls-2" d="M20.2,21.53,10.62,12a1.2,1.2,0,0,1,0-1.77L13.7,7.1a1.14,1.14,0,0,1,1.61,1.61l-2.2,2.2L16.24,14l1.58-1.57a1.13,1.13,0,1,1,1.61,1.6l-1.58,1.58L22,19.76a1.22,1.22,0,0,1,0,1.77A1.2,1.2,0,0,1,20.2,21.53Z"/><path class="cls-3" d="M13.66,18.53,4.08,9a1.22,1.22,0,0,1,0-1.77L7.17,4.09a1.1,1.1,0,0,1,1.61,0,1.11,1.11,0,0,1,0,1.61L6.57,7.9,9.71,11l1.57-1.58a1.14,1.14,0,1,1,1.61,1.61l-1.57,1.57,4.11,4.12a1.2,1.2,0,0,1,0,1.77A1.22,1.22,0,0,1,13.66,18.53Z"/><path class="cls-2" d="M27.38,26.05,37,35.63a1.2,1.2,0,0,1,0,1.77l-3.08,3.08a1.1,1.1,0,0,1-1.61,0,1.08,1.08,0,0,1,0-1.6l2.2-2.21-3.13-3.13-1.58,1.57a1.13,1.13,0,1,1-1.6-1.6l1.57-1.58-4.11-4.11a1.25,1.25,0,1,1,1.76-1.77Z"/><path class="cls-3" d="M33.92,29.05l9.58,9.59a1.2,1.2,0,0,1,0,1.76l-3.09,3.09a1.08,1.08,0,0,1-1.6,0,1.1,1.1,0,0,1,0-1.61L41,39.68l-3.14-3.13L36.3,38.12a1.14,1.14,0,0,1-1.61-1.61l1.58-1.57-4.12-4.12a1.25,1.25,0,1,1,1.77-1.77Z"/><path class="cls-2" d="M21.53,27.38,12,37a1.2,1.2,0,0,1-1.77,0L7.1,33.88a1.14,1.14,0,0,1,1.61-1.61l2.2,2.2L14,31.34l-1.57-1.58a1.13,1.13,0,1,1,1.6-1.6l1.58,1.57,4.11-4.11a1.25,1.25,0,1,1,1.77,1.76Z"/><path class="cls-3" d="M18.53,33.92,9,43.5a1.22,1.22,0,0,1-1.77,0L4.09,40.41a1.08,1.08,0,0,1,0-1.6,1.1,1.1,0,0,1,1.61,0L7.9,41,11,37.87,9.46,36.3a1.14,1.14,0,0,1,1.61-1.61l1.57,1.58,4.12-4.12a1.25,1.25,0,1,1,1.77,1.77Z"/><path class="cls-2" d="M26.05,20.2l9.58-9.58a1.2,1.2,0,0,1,1.77,0l3.08,3.08a1.1,1.1,0,0,1,0,1.61,1.08,1.08,0,0,1-1.6,0l-2.21-2.2-3.13,3.13,1.57,1.58a1.13,1.13,0,1,1-1.6,1.61l-1.58-1.58L27.82,22a1.22,1.22,0,0,1-1.77,0A1.2,1.2,0,0,1,26.05,20.2Z"/><path class="cls-3" d="M29.05,13.66l9.59-9.58a1.2,1.2,0,0,1,1.76,0l3.09,3.09a1.1,1.1,0,0,1,0,1.61,1.11,1.11,0,0,1-1.61,0l-2.2-2.21L36.55,9.71l1.57,1.57a1.14,1.14,0,1,1-1.61,1.61l-1.57-1.57-4.12,4.11a1.2,1.2,0,0,1-1.77,0A1.22,1.22,0,0,1,29.05,13.66Z"/></g></g></svg>